<svg xmlns="http://www.w3.org/2000/svg" width="47.299" height="47.299" viewBox="0 0 47.299 47.299">
  <path id="art" d="M9.7,47.3A9.706,9.706,0,0,0,18.84,34.34a3.181,3.181,0,0,1,2.224-.9,5.934,5.934,0,0,0,4.224-1.75L35.3,21.675a4.157,4.157,0,0,0,5.606-5.51l4.363-4.34a6.929,6.929,0,0,0-9.8-9.8L31.113,6.365a4.157,4.157,0,0,0-5.575,5.479L15.7,21.681A6.265,6.265,0,0,0,13.859,26a3.293,3.293,0,0,1-.9,2.462A9.7,9.7,0,1,0,9.7,47.3ZM23.328,29.732a3.182,3.182,0,0,1-2.264.938,5.937,5.937,0,0,0-4.225,1.749l-6.159,6.159a1.385,1.385,0,0,1-1.959-1.959L14.88,30.46a5.936,5.936,0,0,0,1.75-4.225,3.2,3.2,0,0,1,.171-1.2H28.026Zm9.863-9.863L30.8,22.262H19.039l8.273-8.273ZM28.338,9.136a1.387,1.387,0,0,1,1.96,0,1.386,1.386,0,0,0,1.957,0l5.178-5.152a4.157,4.157,0,0,1,5.882,5.877l-5.176,5.15a1.386,1.386,0,0,0,0,1.962,1.386,1.386,0,0,1-1.96,1.96L28.338,11.1a1.387,1.387,0,0,1,0-1.96ZM9.7,30.669a7.026,7.026,0,0,1,.982.069L6.762,34.659a4.157,4.157,0,0,0,5.879,5.879l3.921-3.921a7.031,7.031,0,0,1,.069.982A6.929,6.929,0,1,1,9.7,30.669Zm0,0" transform="translate(-0.001 0)"/>
</svg>
