<svg id="font" xmlns="http://www.w3.org/2000/svg" width="51.719" height="51.719" viewBox="0 0 51.719 51.719">
  <path id="Path_5656" data-name="Path 5656" d="M124.008,135.872h3.03v-2.626h8.787v19.373h-2.5v3.03h8.03v-3.03h-2.5V133.245h8.787v2.626h3.03v-5.657H124.008Zm0,0" transform="translate(-111.482 -117.062)"/>
  <path id="Path_5657" data-name="Path 5657" d="M129,35.75h4.24v3.03H129Zm0,0" transform="translate(-115.969 -32.139)" />
  <path id="Path_5658" data-name="Path 5658" d="M199.676,35.75h4.24v3.03h-4.24Zm0,0" transform="translate(-179.506 -32.139)" />
  <path id="Path_5659" data-name="Path 5659" d="M270.348,35.75h4.241v3.03h-4.241Zm0,0" transform="translate(-243.039 -32.139)"/>
  <path id="Path_5660" data-name="Path 5660" d="M341.023,35.75h4.24v3.03h-4.24Zm0,0" transform="translate(-306.575 -32.139)"/>
  <path id="Path_5661" data-name="Path 5661" d="M129,446.25h4.24v3.03H129Zm0,0" transform="translate(-115.969 -401.173)"/>
  <path id="Path_5662" data-name="Path 5662" d="M199.676,446.25h4.24v3.03h-4.24Zm0,0" transform="translate(-179.506 -401.173)"/>
  <path id="Path_5663" data-name="Path 5663" d="M270.348,446.25h4.241v3.03h-4.241Zm0,0" transform="translate(-243.039 -401.173)"/>
  <path id="Path_5664" data-name="Path 5664" d="M341.023,446.25h4.24v3.03h-4.24Zm0,0" transform="translate(-306.575 -401.173)"/>
  <path id="Path_5665" data-name="Path 5665" d="M446.25,129h3.03v4.24h-3.03Zm0,0" transform="translate(-401.173 -115.969)"/>
  <path id="Path_5666" data-name="Path 5666" d="M446.25,199.676h3.03v4.24h-3.03Zm0,0" transform="translate(-401.173 -179.506)"/>
  <path id="Path_5667" data-name="Path 5667" d="M446.25,270.348h3.03v4.24h-3.03Zm0,0" transform="translate(-401.173 -243.039)"/>
  <path id="Path_5668" data-name="Path 5668" d="M446.25,341.023h3.03v4.24h-3.03Zm0,0" transform="translate(-401.173 -306.575)"/>
  <path id="Path_5669" data-name="Path 5669" d="M35.75,129h3.03v4.24H35.75Zm0,0" transform="translate(-32.139 -115.969)"/>
  <path id="Path_5670" data-name="Path 5670" d="M35.75,199.676h3.03v4.24H35.75Zm0,0" transform="translate(-32.139 -179.506)"/>
  <path id="Path_5671" data-name="Path 5671" d="M35.75,270.348h3.03v4.24H35.75Zm0,0" transform="translate(-32.139 -243.039)"/>
  <path id="Path_5672" data-name="Path 5672" d="M35.75,341.023h3.03v4.24H35.75Zm0,0" transform="translate(-32.139 -306.575)"/>
  <path id="Path_5673" data-name="Path 5673" d="M0,10.253H10.253V0H0ZM3.03,3.03H7.222V7.222H3.03Zm0,0" fill="#ea3505"/>
  <path id="Path_5674" data-name="Path 5674" d="M410.5,0V10.253h10.253V0Zm7.222,7.222H413.53V3.03h4.192Zm0,0" transform="translate(-369.034)"/>
  <path id="Path_5675" data-name="Path 5675" d="M0,420.753H10.253V410.5H0Zm3.03-7.222H7.222v4.192H3.03Zm0,0" transform="translate(0 -369.034)"/>
  <path id="Path_5676" data-name="Path 5676" d="M410.5,420.753h10.253V410.5H410.5Zm3.03-7.222h4.192v4.192H413.53Zm0,0" transform="translate(-369.034 -369.034)"/>
</svg>
