<svg xmlns="http://www.w3.org/2000/svg" width="62.173" height="62.135" viewBox="0 0 62.173 62.135">
  <g id="gdpr" transform="translate(0 -0.154)">
    <g id="Group_6655" data-name="Group 6655" transform="translate(0 0.154)">
      <g id="Group_6654" data-name="Group 6654">
        <path id="Path_5677" data-name="Path 5677" d="M222.094,4.8a.546.546,0,0,1,.147.47l-.289,1.779a.546.546,0,0,0,.8.566l1.452-.8a.546.546,0,0,1,.529,0l1.452.8a.546.546,0,0,0,.8-.566L226.7,5.265a.546.546,0,0,1,.147-.47l1.25-1.281a.546.546,0,0,0-.308-.921l-1.68-.257a.546.546,0,0,1-.412-.308l-.732-1.56a.546.546,0,0,0-.99,0l-.732,1.56a.546.546,0,0,1-.412.308l-1.68.257a.546.546,0,0,0-.308.921Z" transform="translate(-193.384 -0.154)" fill="#ea3505"/>
        <path id="Path_5678" data-name="Path 5678" d="M227.788,443.972l-1.68-.257a.546.546,0,0,1-.412-.308l-.732-1.56a.546.546,0,0,0-.99,0l-.732,1.56a.546.546,0,0,1-.412.308l-1.68.257a.546.546,0,0,0-.308.921l1.25,1.281a.546.546,0,0,1,.147.47l-.289,1.779a.546.546,0,0,0,.8.566l1.452-.8a.547.547,0,0,1,.529,0l1.452.8a.546.546,0,0,0,.8-.566l-.289-1.779a.546.546,0,0,1,.147-.47l1.25-1.281a.546.546,0,0,0-.308-.921Z" transform="translate(-193.384 -386.922)"/>
        <path id="Path_5679" data-name="Path 5679" d="M114.6,34.69a.546.546,0,0,1,.149.47l-.291,1.779a.546.546,0,0,0,.8.566l1.452-.8a.546.546,0,0,1,.529,0l1.452.8a.546.546,0,0,0,.8-.566L119.2,35.16a.546.546,0,0,1,.15-.47l1.25-1.281a.546.546,0,0,0-.308-.921l-1.68-.257a.546.546,0,0,1-.413-.308l-.732-1.56a.546.546,0,0,0-.983,0l-.738,1.56a.546.546,0,0,1-.412.308l-1.68.257a.546.546,0,0,0-.309.921Z" transform="translate(-99.187 -26.356)"/>
        <path id="Path_5680" data-name="Path 5680" d="M340.978,414.7l-1.68-.257a.546.546,0,0,1-.413-.308l-.732-1.559a.546.546,0,0,0-.989,0l-.732,1.559a.546.546,0,0,1-.412.308l-1.68.257a.546.546,0,0,0-.309.921l1.25,1.281a.546.546,0,0,1,.149.47l-.29,1.779a.546.546,0,0,0,.8.566l1.452-.8a.546.546,0,0,1,.529,0l1.452.8a.546.546,0,0,0,.8-.566l-.29-1.779a.546.546,0,0,1,.149-.47l1.25-1.281a.546.546,0,0,0-.308-.921Z" transform="translate(-292.567 -361.273)"/>
        <path id="Path_5681" data-name="Path 5681" d="M34.484,110.868a.546.546,0,0,1,.147.47l-.289,1.779a.546.546,0,0,0,.8.566l1.452-.8a.546.546,0,0,1,.529,0l1.452.8a.546.546,0,0,0,.8-.566l-.289-1.779a.546.546,0,0,1,.147-.47l1.251-1.281a.546.546,0,0,0-.309-.921l-1.68-.257a.546.546,0,0,1-.412-.308l-.732-1.56a.546.546,0,0,0-.99,0l-.732,1.56a.546.546,0,0,1-.412.308l-1.68.257a.546.546,0,0,0-.308.921Z" transform="translate(-28.987 -93.103)" fill="#ea3505"/>
        <path id="Path_5682" data-name="Path 5682" d="M422.412,329.365l-1.68-.257a.546.546,0,0,1-.412-.308l-.733-1.56a.546.546,0,0,0-.988,0l-.732,1.56a.546.546,0,0,1-.413.308l-1.68.257a.546.546,0,0,0-.308.921l1.251,1.281a.547.547,0,0,1,.149.47l-.29,1.779a.546.546,0,0,0,.8.566l1.452-.8a.546.546,0,0,1,.529,0l1.452.8a.546.546,0,0,0,.8-.566l-.291-1.779a.546.546,0,0,1,.147-.47l1.251-1.281a.546.546,0,0,0-.309-.921Z" transform="translate(-363.926 -286.496)"/>
        <path id="Path_5683" data-name="Path 5683" d="M6.075,228.268a.546.546,0,0,0,.224-.534l-.289-1.779a.546.546,0,0,1,.147-.47l1.25-1.281a.546.546,0,0,0-.308-.921l-1.68-.257a.546.546,0,0,1-.412-.308l-.732-1.56a.546.546,0,0,0-.99,0l-.732,1.56a.546.546,0,0,1-.412.308l-1.68.257a.546.546,0,0,0-.308.921l1.25,1.281a.546.546,0,0,1,.147.47l-.289,1.779a.546.546,0,0,0,.8.566l1.452-.8a.546.546,0,0,1,.529,0l1.452.8A.546.546,0,0,0,6.075,228.268Z" transform="translate(0 -193.538)"/>
        <path id="Path_5684" data-name="Path 5684" d="M448.787,224.2a.546.546,0,0,0-.308-.921l-1.68-.257a.546.546,0,0,1-.412-.308l-.732-1.56a.546.546,0,0,0-.99,0l-.732,1.56a.546.546,0,0,1-.412.308l-1.68.257a.546.546,0,0,0-.308.921l1.25,1.281a.546.546,0,0,1,.147.47l-.289,1.779a.546.546,0,0,0,.8.566l1.452-.8a.546.546,0,0,1,.529,0l1.452.8a.546.546,0,0,0,.8-.566l-.289-1.779a.546.546,0,0,1,.147-.47Z" transform="translate(-386.769 -193.538)"/>
        <path id="Path_5685" data-name="Path 5685" d="M44.064,327.563l-1.68-.257a.546.546,0,0,1-.413-.308l-.732-1.559a.546.546,0,0,0-.988,0L39.519,327a.546.546,0,0,1-.412.308l-1.68.26a.546.546,0,0,0-.309.921l1.251,1.281a.546.546,0,0,1,.147.47l-.291,1.785a.546.546,0,0,0,.8.566l1.452-.8a.546.546,0,0,1,.529-.005l1.452.8a.546.546,0,0,0,.8-.566l-.291-1.779a.546.546,0,0,1,.149-.47l1.25-1.281a.546.546,0,0,0-.308-.921Z" transform="translate(-32.39 -284.918)"/>
        <path id="Path_5686" data-name="Path 5686" d="M420.659,109.1a.546.546,0,0,1,.147.47l-.289,1.785a.546.546,0,0,0,.8.566l1.452-.8a.546.546,0,0,1,.529,0l1.452.8a.546.546,0,0,0,.808-.566l-.289-1.779a.546.546,0,0,1,.147-.47l1.251-1.281a.546.546,0,0,0-.309-.921l-1.68-.257a.546.546,0,0,1-.412-.308l-.732-1.559a.546.546,0,0,0-.99,0l-.732,1.559a.546.546,0,0,1-.412.308l-1.68.257a.546.546,0,0,0-.308.921Z" transform="translate(-367.386 -91.563)"/>
        <path id="Path_5687" data-name="Path 5687" d="M116.4,403.772l-1.68-.257a.546.546,0,0,1-.412-.308l-.732-1.56a.546.546,0,0,0-.99,0l-.732,1.56a.546.546,0,0,1-.412.308l-1.68.257a.546.546,0,0,0-.308.921l1.25,1.281a.546.546,0,0,1,.147.47l-.289,1.779a.546.546,0,0,0,.8.566l1.452-.8a.546.546,0,0,1,.529,0l1.452.8a.546.546,0,0,0,.8-.566l-.289-1.78a.546.546,0,0,1,.147-.47l1.247-1.278a.546.546,0,0,0-.306-.923Z" transform="translate(-95.78 -351.696)"/>
        <path id="Path_5688" data-name="Path 5688" d="M331.531,24.224,331.241,26a.546.546,0,0,0,.8.566l1.452-.8a.546.546,0,0,1,.529,0l1.452.8a.546.546,0,0,0,.8-.566l-.289-1.779a.546.546,0,0,1,.147-.47l1.247-1.278a.546.546,0,0,0-.308-.921L335.4,21.3a.546.546,0,0,1-.412-.308l-.732-1.56a.546.546,0,0,0-.99,0l-.732,1.56a.546.546,0,0,1-.412.308l-1.68.257a.546.546,0,0,0-.308.921l1.252,1.278A.547.547,0,0,1,331.531,24.224Z" transform="translate(-289.15 -16.77)"/>
        <path id="Path_5689" data-name="Path 5689" d="M92.353,208.147a2.184,2.184,0,0,0,2.184,2.184h4.369a2.184,2.184,0,0,0,2.184-2.184v-3.277A1.092,1.092,0,0,0,100,203.778H97.814a1.092,1.092,0,0,0,0,2.185h1.092v2.184H94.537v-8.738h4.369a1.092,1.092,0,1,0,2.185,0,2.184,2.184,0,0,0-2.184-2.184H94.538a2.184,2.184,0,0,0-2.184,2.184v8.738Z" transform="translate(-80.926 -172.842)" />
        <path id="Path_5690" data-name="Path 5690" d="M180.538,205.964v-4.369a4.369,4.369,0,0,0-4.369-4.369h-3.277a1.092,1.092,0,0,0-1.092,1.092v10.922a1.092,1.092,0,0,0,1.092,1.092h3.277A4.369,4.369,0,0,0,180.538,205.964Zm-2.184,0a2.184,2.184,0,0,1-2.184,2.184h-2.184V199.41h2.184a2.184,2.184,0,0,1,2.184,2.184Z" transform="translate(-150.544 -172.843)"/>
        <path id="Path_5691" data-name="Path 5691" d="M265.538,197.225h-4.369a1.092,1.092,0,0,0-1.092,1.092V209.24a1.092,1.092,0,1,0,2.185,0v-3.277h3.277a3.277,3.277,0,0,0,3.277-3.277V200.5A3.277,3.277,0,0,0,265.538,197.225Zm1.092,5.461a1.092,1.092,0,0,1-1.092,1.092h-3.277V199.41h3.277a1.092,1.092,0,0,1,1.092,1.092Z" transform="translate(-227.898 -172.842)"/>
        <path id="Path_5692" data-name="Path 5692" d="M344.986,197.225h-4.369a1.092,1.092,0,0,0-1.092,1.092V209.24a1.092,1.092,0,1,0,2.185,0v-3.277h3.277a1.092,1.092,0,0,1,1.092,1.092v2.184a1.092,1.092,0,1,0,2.185,0v-2.184a3.256,3.256,0,0,0-.852-2.184,3.256,3.256,0,0,0,.852-2.184V200.5A3.277,3.277,0,0,0,344.986,197.225Zm1.092,5.461a1.092,1.092,0,0,1-1.092,1.092h-3.277V199.41h3.277a1.092,1.092,0,0,1,1.092,1.092v2.184Z" transform="translate(-297.516 -172.842)" />
      </g>
    </g>
  </g>
</svg>
