<svg xmlns="http://www.w3.org/2000/svg" width="51.689" height="49.78" viewBox="0 0 51.689 49.78">
  <path id="Path_5698" data-name="Path 5698" d="M43.729,5.031H7.96A7.969,7.969,0,0,0,0,12.991v33.86a7.969,7.969,0,0,0,7.96,7.96H43.729a7.969,7.969,0,0,0,7.96-7.96V12.991A7.969,7.969,0,0,0,43.729,5.031ZM2.846,12.991A5.12,5.12,0,0,1,7.96,7.877H43.729a5.12,5.12,0,0,1,5.114,5.114V37.866a5.12,5.12,0,0,1-5.114,5.114H7.96a5.12,5.12,0,0,1-5.114-5.114V12.991ZM43.729,51.965H7.96a5.12,5.12,0,0,1-5.114-5.114V43.959A7.923,7.923,0,0,0,7.96,45.826H43.729a7.923,7.923,0,0,0,5.114-1.866v2.892A5.119,5.119,0,0,1,43.729,51.965Z" transform="translate(0 -5.031)" />
</svg>
