<svg xmlns="http://www.w3.org/2000/svg" width="51.382" height="51.382" viewBox="0 0 51.382 51.382">
  <g id="settings" transform="translate(0 -0.001)">
    <g id="Group_6656" data-name="Group 6656" transform="translate(0 0.001)">
      <path id="Path_5693" data-name="Path 5693" d="M48.752,20.3l-3.606-.612a20.364,20.364,0,0,0-1.449-3.5l2.125-2.973a3.164,3.164,0,0,0-.343-4.089l-3.2-3.2a3.151,3.151,0,0,0-2.243-.934,3.119,3.119,0,0,0-1.835.59L35.217,7.708a20.152,20.152,0,0,0-3.628-1.492l-.6-3.564A3.171,3.171,0,0,0,27.854,0H23.335A3.171,3.171,0,0,0,20.2,2.652L19.578,6.3a19.862,19.862,0,0,0-3.488,1.47L13.138,5.647a3.17,3.17,0,0,0-4.089.343l-3.209,3.2A3.177,3.177,0,0,0,5.5,13.278l2.147,3.016A19.891,19.891,0,0,0,6.215,19.8l-3.564.6A3.171,3.171,0,0,0,0,23.54v4.519a3.171,3.171,0,0,0,2.651,3.134l3.649.623A19.862,19.862,0,0,0,7.771,35.3L5.657,38.245A3.164,3.164,0,0,0,6,42.334l3.2,3.2a3.151,3.151,0,0,0,2.243.934,3.119,3.119,0,0,0,1.835-.59l3.016-2.147a20.306,20.306,0,0,0,3.392,1.4l.6,3.606a3.171,3.171,0,0,0,3.134,2.651h4.53a3.171,3.171,0,0,0,3.134-2.651l.612-3.606a20.364,20.364,0,0,0,3.5-1.449L38.169,45.8a3.151,3.151,0,0,0,1.846.59h0a3.151,3.151,0,0,0,2.243-.934l3.2-3.2A3.177,3.177,0,0,0,45.8,38.17l-2.125-2.984a20.218,20.218,0,0,0,1.449-3.5l3.606-.6a3.171,3.171,0,0,0,2.651-3.134V23.432A3.133,3.133,0,0,0,48.752,20.3ZM48.5,27.951a.278.278,0,0,1-.236.279l-4.508.751A1.441,1.441,0,0,0,42.6,30.044a17.183,17.183,0,0,1-1.868,4.5,1.451,1.451,0,0,0,.064,1.578l2.651,3.735a.292.292,0,0,1-.032.365l-3.2,3.2a.273.273,0,0,1-.2.086.264.264,0,0,1-.161-.054L36.129,40.8a1.45,1.45,0,0,0-1.578-.064,17.183,17.183,0,0,1-4.5,1.868,1.425,1.425,0,0,0-1.063,1.159l-.762,4.508a.278.278,0,0,1-.279.236H23.431a.278.278,0,0,1-.279-.236L22.4,43.762A1.441,1.441,0,0,0,21.338,42.6a17.842,17.842,0,0,1-4.4-1.8,1.486,1.486,0,0,0-.73-.193,1.414,1.414,0,0,0-.837.268l-3.757,2.673a.319.319,0,0,1-.161.054.288.288,0,0,1-.2-.086l-3.2-3.2a.291.291,0,0,1-.032-.365l2.64-3.7a1.469,1.469,0,0,0,.064-1.589,17.021,17.021,0,0,1-1.889-4.487A1.47,1.47,0,0,0,7.674,29.11l-4.54-.773a.278.278,0,0,1-.236-.279V23.54a.278.278,0,0,1,.236-.279l4.476-.751a1.451,1.451,0,0,0,1.17-1.073,17.165,17.165,0,0,1,1.835-4.508,1.433,1.433,0,0,0-.075-1.567L7.868,11.6a.292.292,0,0,1,.032-.365l3.2-3.2a.273.273,0,0,1,.2-.086.264.264,0,0,1,.161.054l3.7,2.64a1.469,1.469,0,0,0,1.589.064,17.021,17.021,0,0,1,4.487-1.889A1.47,1.47,0,0,0,22.3,7.665l.773-4.54a.278.278,0,0,1,.279-.236h4.519a.278.278,0,0,1,.279.236L28.905,7.6a1.451,1.451,0,0,0,1.073,1.17,17.422,17.422,0,0,1,4.6,1.889,1.451,1.451,0,0,0,1.578-.064l3.7-2.662a.319.319,0,0,1,.161-.054.288.288,0,0,1,.2.086l3.2,3.2a.291.291,0,0,1,.032.365l-2.651,3.725a1.45,1.45,0,0,0-.064,1.578,17.183,17.183,0,0,1,1.868,4.5,1.425,1.425,0,0,0,1.159,1.063l4.508.762a.278.278,0,0,1,.236.279v4.519Z" transform="translate(0 -0.001)"/>
      <path id="Path_5694" data-name="Path 5694" d="M148.223,136a12.123,12.123,0,1,0,12.123,12.123A12.13,12.13,0,0,0,148.223,136Zm0,21.077a8.954,8.954,0,1,1,8.954-8.954A8.96,8.96,0,0,1,148.223,157.078Z" transform="translate(-122.527 -122.438)"/>
    </g>
  </g>
</svg>
