<svg xmlns="http://www.w3.org/2000/svg" width="57.227" height="58.908" viewBox="0 0 57.227 58.908">
  <g id="settings_1_" data-name="settings (1)" transform="translate(-6.85)">
    <g id="Group_6657" data-name="Group 6657" transform="translate(6.85)">
      <path id="Path_5695" data-name="Path 5695" d="M182.207,28.712V1.656a1.656,1.656,0,0,0-3.311,0V28.712a8.408,8.408,0,0,0,0,16.484V57.24a1.656,1.656,0,0,0,3.311,0V45.2a8.408,8.408,0,0,0,0-16.484Zm-1.656,13.332a5.09,5.09,0,1,1,5.09-5.09A5.093,5.093,0,0,1,180.551,42.044Z" transform="translate(-151.876)"/>
      <path id="Path_5696" data-name="Path 5696" d="M16.907,14.828V1.656a1.656,1.656,0,1,0-3.311,0V14.828a8.408,8.408,0,0,0,0,16.484V57.24a1.656,1.656,0,1,0,3.311,0V31.3a8.4,8.4,0,0,0,0-16.472ZM15.251,28.16a5.09,5.09,0,1,1,5.09-5.09A5.093,5.093,0,0,1,15.251,28.16Z" transform="translate(-6.85)"/>
      <path id="Path_5697" data-name="Path 5697" d="M346.507,14.828V1.656a1.656,1.656,0,0,0-3.311,0V14.828a8.408,8.408,0,0,0,0,16.484v25.94a1.656,1.656,0,1,0,3.311,0V31.3a8.4,8.4,0,0,0,0-16.472ZM344.851,28.16a5.09,5.09,0,1,1,5.09-5.09A5.093,5.093,0,0,1,344.851,28.16Z" transform="translate(-296.025)"/>
    </g>
  </g>
</svg>
