<svg xmlns="http://www.w3.org/2000/svg" width="52.271" height="52.271" viewBox="0 0 52.271 52.271">
  <g id="translate" transform="translate(0 0)">
    <path id="Path_5653" data-name="Path 5653" d="M321.626,301.945c-.148-.492-.755-.722-1.378-.722a1.333,1.333,0,0,0-1.361.722l-3.166,10.318a.954.954,0,0,0-.033.164c0,.525.771.886,1.345.886.361,0,.64-.114.722-.426l.623-2.182h3.757l.624,2.182c.082.312.361.426.721.426.574,0,1.345-.377,1.345-.886a.722.722,0,0,0-.033-.164Zm-2.805,7.086L320.248,304l1.428,5.036Zm0,0" transform="translate(-283.459 -270.471)"/>
    <path id="Path_5654" data-name="Path 5654" d="M46.639,21.323H30.947v-6.7l5.1-3.643a1.531,1.531,0,0,0,0-2.492L30.885,4.8A5.641,5.641,0,0,0,25.315,0H5.632A5.638,5.638,0,0,0,0,5.632V25.315a5.638,5.638,0,0,0,5.632,5.632H21.324v6.7l-5.1,3.643a1.531,1.531,0,0,0,0,2.492l5.161,3.686a5.641,5.641,0,0,0,5.57,4.8H46.639a5.638,5.638,0,0,0,5.632-5.632V26.956a5.638,5.638,0,0,0-5.632-5.632ZM5.632,27.884a2.572,2.572,0,0,1-2.569-2.569V5.632A2.572,2.572,0,0,1,5.632,3.063H25.315a2.572,2.572,0,0,1,2.569,2.569,1.531,1.531,0,0,0,.641,1.246l4,2.855-4,2.855a1.532,1.532,0,0,0-.641,1.246v7.49h-.928a5.638,5.638,0,0,0-5.632,5.632v.929ZM49.208,46.638a2.572,2.572,0,0,1-2.569,2.569H26.955a2.572,2.572,0,0,1-2.569-2.569,1.531,1.531,0,0,0-.641-1.246l-4-2.855,4-2.855a1.532,1.532,0,0,0,.641-1.246V26.955a2.572,2.572,0,0,1,2.569-2.569H46.639a2.572,2.572,0,0,1,2.569,2.569Zm0,0"/>
    <path id="Path_5655" data-name="Path 5655" d="M107.293,97.043a.864.864,0,0,0,0-1.728h-3.842v-2.1a.864.864,0,1,0-1.727,0v2.1H97.883a.864.864,0,0,0,0,1.728h1.19a8.237,8.237,0,0,0,2.159,4.748,6.5,6.5,0,0,1-3.35.926.864.864,0,0,0,0,1.727,8.214,8.214,0,0,0,4.7-1.476,8.216,8.216,0,0,0,4.705,1.476.864.864,0,0,0,0-1.727,6.494,6.494,0,0,1-3.35-.926,8.237,8.237,0,0,0,2.159-4.748Zm-4.705,3.669a6.522,6.522,0,0,1-1.774-3.669h3.549A6.52,6.52,0,0,1,102.588,100.713Zm0,0" transform="translate(-87.115 -82.927)"/>
  </g>
</svg>
