<svg xmlns="http://www.w3.org/2000/svg" width="56.699" height="56.699" viewBox="0 0 56.699 56.699">
  <path id="wordpress" d="M28.35,0A28.35,28.35,0,1,0,56.7,28.35,28.381,28.381,0,0,0,28.35,0ZM2.859,28.347A25.284,25.284,0,0,1,5.065,17.978L17.227,51.289A25.5,25.5,0,0,1,2.859,28.347ZM28.35,53.841a25.33,25.33,0,0,1-7.2-1.042L28.8,30.577l7.832,21.468a3.834,3.834,0,0,0,.182.354,25.524,25.524,0,0,1-8.46,1.441Zm3.508-37.433v0c1.531-.08,2.913-.239,2.913-.239a1.056,1.056,0,0,0-.161-2.1s-4.127.319-6.79.319c-2.5,0-6.712-.319-6.712-.319a1.056,1.056,0,0,0-.158,2.1s1.3.161,2.674.239l3.967,10.882L22.013,44.01,12.734,16.4c1.533-.08,2.915-.239,2.915-.239a1.056,1.056,0,0,0-.161-2.1s-4.127.319-6.79.319c-.48,0-1.042-.012-1.647-.033a25.494,25.494,0,0,1,38.513-4.8,3.149,3.149,0,0,0-.331-.021,4.411,4.411,0,0,0-4.276,4.526c0,2.1,1.212,3.874,2.5,5.979a13.381,13.381,0,0,1,2.1,7.031c0,2.183-.834,4.708-1.944,8.243L41.083,43.8Zm18.864-.288A25.494,25.494,0,0,1,41.166,50.38l0,0,7.784-22.51a24.134,24.134,0,0,0,1.944-9.133,18.878,18.878,0,0,0-.17-2.615Z"/>
</svg>
